<svg xmlns="http://www.w3.org/2000/svg" width="256" height="256"><path fill-opacity=".008" d="M0 128.004v128.004l128.25-.254 128.25-.254.254-127.75L257.008 0H0v128.004m.485.496c0 70.4.119 99.053.265 63.672.146-35.38.146-92.98 0-128C.604 29.153.485 58.1.485 128.5" fill="#1976D2" fill-rule="evenodd"/><path fill-opacity=".016" d="M43 1.076c1.79.627 1.081.729-2.5.359-3.837-.397-4.651-.256-3.5.605 1.184.885.903.991-1.334.501-1.996-.438-2.624-.282-2.125.526.496.802.032.932-1.541.433-1.413-.448-2.02-.341-1.631.288.757 1.225-2.136 2.474-3.614 1.561-.676-.418-.765-.175-.245.666.599.97.358 1.149-.898.666-1.156-.443-1.482-.28-1 .5.475.77.168.948-.916.533-.898-.345-1.941-.127-2.318.484-.445.72-.226.826.622.302.877-.542 1.068-.419.579.372-.401.65-1.292 1.057-1.979.905C18.972 9.416 9.416 18.972 9.777 20.6c.152.687-.255 1.578-.905 1.979-.791.489-.914.298-.372-.579.524-.848.418-1.067-.302-.622-.611.377-.829 1.42-.484 2.318.415 1.084.237 1.391-.533.916-.78-.482-.943-.156-.5 1 .483 1.256.304 1.497-.666.898-.841-.52-1.084-.431-.666.245.913 1.478-.336 4.371-1.561 3.614-.629-.389-.736.218-.288 1.631.499 1.573.369 2.037-.433 1.541-.808-.499-.964.129-.526 2.125.49 2.237.384 2.518-.501 1.334-.861-1.151-1.002-.337-.605 3.5.37 3.581.268 4.29-.359 2.5-.514-1.467-.877 33.671-.877 85s.363 86.467.877 85c.627-1.79.729-1.081.359 2.5-.397 3.837-.256 4.651.605 3.5.885-1.184.991-.903.501 1.334-.438 1.996-.282 2.624.526 2.125.802-.496.932-.032.433 1.541-.448 1.413-.341 2.02.288 1.631 1.225-.757 2.474 2.136 1.561 3.614-.418.676-.175.765.666.245.97-.599 1.149-.358.666.898-.443 1.156-.28 1.482.5 1 .77-.475.948-.168.533.916-.345.898-.127 1.941.484 2.318.72.445.826.226.302-.622-.542-.877-.419-1.068.372-.579.65.401 1.057 1.292.905 1.979-.361 1.628 9.195 11.184 10.823 10.823.687-.152 1.578.255 1.979.905.489.791.298.914-.579.372-.848-.524-1.067-.418-.622.302.377.611 1.42.829 2.318.484 1.084-.415 1.391-.237.916.533-.482.78-.156.943 1 .5 1.256-.483 1.497-.304.898.666-.52.841-.431 1.084.245.666 1.478-.913 4.371.336 3.614 1.561-.389.629.218.736 1.631.288 1.573-.499 2.037-.369 1.541.433-.499.808.129.964 2.125.526 2.237-.49 2.518-.384 1.334.501-1.151.861-.337 1.002 3.5.605 3.581-.37 4.29-.268 2.5.359-1.467.514 33.671.877 85 .877s86.467-.363 85-.877c-1.79-.627-1.081-.729 2.5-.359 3.837.397 4.651.256 3.5-.605-1.184-.885-.903-.991 1.334-.501 1.996.438 2.624.282 2.125-.526-.496-.802-.032-.932 1.541-.433 1.413.448 2.02.341 1.631-.288-.757-1.225 2.136-2.474 3.614-1.561.676.418.765.175.245-.666-.599-.97-.358-1.149.898-.666 1.156.443 1.482.28 1-.5-.475-.77-.168-.948.916-.533.898.345 1.941.127 2.318-.484.445-.72.226-.826-.622-.302-.877.542-1.068.419-.579-.372.401-.65 1.292-1.057 1.979-.905 1.628.361 11.184-9.195 10.823-10.823-.152-.687.255-1.578.905-1.979.791-.489.914-.298.372.579-.524.848-.418 1.067.302.622.611-.377.829-1.42.484-2.318-.415-1.084-.237-1.391.533-.916.78.482.943.156.5-1-.483-1.256-.304-1.497.666-.898.841.52 1.084.431.666-.245-.913-1.478.336-4.371 1.561-3.614.629.389.736-.218.288-1.631-.499-1.573-.369-2.037.433-1.541.808.499.964-.129.526-2.125-.49-2.237-.384-2.518.501-1.334.87 1.163 1.031.489.714-3-.225-2.475-.211-3.706.03-2.735 1.881 7.562 2.296-8.091 2.296-86.524 0-51.884-.365-86.757-.903-86.191-.497.522-1.153 1.85-1.459 2.95-.305 1.1-.33-.25-.055-3 .383-3.84.239-4.652-.623-3.5-.885 1.184-.991.903-.501-1.334.438-1.996.282-2.624-.526-2.125-.802.496-.932.032-.433-1.541.448-1.413.341-2.02-.288-1.631-1.225.757-2.474-2.136-1.561-3.614.418-.676.175-.765-.666-.245-.97.599-1.149.358-.666-.898.443-1.156.28-1.482-.5-1-.77.475-.948.168-.533-.916.345-.898.127-1.941-.484-2.318-.72-.445-.826-.226-.302.622.542.877.419 1.068-.372.579-.65-.401-1.057-1.281-.905-1.955.153-.673-2.198-3.677-5.223-6.674-3.025-2.998-4.825-4.525-4-3.395.825 1.13.203.68-1.382-1-1.585-1.68-2.569-2.489-2.186-1.797.55.993.164 1.015-1.837.103-1.393-.634-2.252-1.607-1.909-2.162.343-.554.144-.712-.441-.35-1.478.913-4.371-.336-3.614-1.561.389-.629-.218-.736-1.631-.288-1.573.499-2.037.369-1.541-.433.499-.808-.129-.964-2.125-.526-2.237.49-2.518.384-1.334-.501 1.151-.861.337-1.002-3.5-.605-3.581.37-4.29.268-2.5-.359 1.467-.514-33.671-.877-85-.877s-86.467.363-85 .877M17.872 11.75c-1.243 1.586-1.208 1.621.378.378.962-.755 1.75-1.543 1.75-1.75 0-.823-.821-.294-2.128 1.372m-7 7c-1.243 1.586-1.208 1.621.378.378C12.916 17.821 13.445 17 12.622 17c-.207 0-.995.788-1.75 1.75M243 17.378c0 .207.787.995 1.75 1.75 1.586 1.243 1.621 1.208.378-.378-1.307-1.666-2.128-2.195-2.128-1.372M.478 128c0 48.125.123 67.813.272 43.75.149-24.062.149-63.437 0-87.5C.601 60.188.478 79.875.478 128M10 236.378c0 .207.787.995 1.75 1.75 1.586 1.243 1.621 1.208.378-.378-1.307-1.666-2.128-2.195-2.128-1.372m233.872 1.372c-1.243 1.586-1.208 1.621.378.378.963-.755 1.75-1.543 1.75-1.75 0-.823-.821-.294-2.128 1.372M17 243.378c0 .207.788.995 1.75 1.75 1.586 1.243 1.621 1.208.378-.378-1.307-1.666-2.128-2.195-2.128-1.372m219.872 1.372c-1.243 1.586-1.208 1.621.378.378 1.666-1.307 2.195-2.128 1.372-2.128-.207 0-.995.787-1.75 1.75" fill="#1976D2" fill-rule="evenodd"/><path fill-opacity=".08" d="M71.241 65.995c-1.793 1.093-4.153 3.453-5.246 5.246-1.847 3.029-1.988 5.078-1.991 29.023L64 126.029l30.75-.265 30.75-.264.264-30.75.265-30.75-25.765.004c-23.945.003-25.994.144-29.023 1.991M131 94.5V125h61.095l-.298-25.929c-.279-24.396-.419-26.096-2.368-28.75-4.347-5.921-6.46-6.318-33.679-6.319L131 64v30.5M90.667 83.667c-.367.366-.667 2.391-.667 4.5C90 91.866 89.88 92 86.571 92 83.367 92 80 94.049 80 96s3.367 4 6.571 4c3.338 0 3.429.107 3.429 4.031 0 6.968 6.209 6.671 6.807-.325.285-3.331.568-3.614 3.899-3.899 7.093-.606 7.046-7.013-.057-7.617-3.384-.288-3.649-.546-3.649-3.55 0-1.782-.54-3.78-1.2-4.44-1.307-1.307-4.072-1.595-5.133-.533m57 8c-1.382 1.381-.593 5.302 1.267 6.298 1.064.569 7.519 1.035 14.345 1.035 10.961 0 12.614-.224 14.146-1.917 1.384-1.529 1.509-2.338.62-4-1.05-1.962-1.949-2.083-15.414-2.083-7.863 0-14.598.3-14.964.667m-17 39c-.367.366-.667 14.316-.667 31V192l25.75-.004c23.931-.003 25.98-.144 29.009-1.991 1.793-1.093 4.153-3.453 5.246-5.246 1.847-3.029 1.988-5.078 1.991-29.009L192 130h-30.333c-16.684 0-30.634.3-31 .667M64.002 155.75c.001 27.219.398 29.332 6.319 33.679 2.654 1.949 4.354 2.089 28.75 2.368l25.929.298V131H64l.002 24.75m82.382-4.308c-.304.792-.396 2.255-.205 3.25.317 1.644 1.651 1.808 14.726 1.808 12.144 0 14.535-.251 15.395-1.614.56-.888.736-2.35.391-3.25-.542-1.411-2.631-1.636-15.191-1.636-11.76 0-14.669.277-15.116 1.442M85.2 152.2c-1.776 1.776-1.48 3.314 1.268 6.579l2.467 2.933-2.467 2.318c-2.693 2.53-3.137 4.901-1.268 6.77 1.869 1.869 4.24 1.425 6.77-1.268l2.318-2.467 2.933 2.467c3.265 2.748 4.803 3.044 6.579 1.268 1.775-1.775 1.461-4.254-.8-6.3-2.534-2.293-2.523-3.717.047-6.043 1.276-1.154 1.936-2.815 1.75-4.405-.393-3.374-4.616-4.014-7.254-1.099-2.326 2.57-3.75 2.581-6.043.047-2.046-2.261-4.525-2.575-6.3-.8m61.184 15.242c-.304.792-.396 2.255-.205 3.25.317 1.644 1.651 1.808 14.726 1.808 12.144 0 14.535-.251 15.395-1.614.56-.888.736-2.35.391-3.25-.542-1.411-2.631-1.636-15.191-1.636-11.76 0-14.669.277-15.116 1.442" fill="#1976D2" fill-rule="evenodd"/><path fill-opacity=".153" d="M72.216 65.988c-3.27 1.484-4.744 2.958-6.228 6.228-1.752 3.861-1.946 6.68-1.966 28.534L64 125h61V64l-24.25.022c-21.854.02-24.673.214-28.534 1.966m18.899 17.644C89.67 84.644 89 86.186 89 88.496c0 3.169-.231 3.403-3.649 3.694-7.103.604-7.15 7.011-.057 7.617 3.329.284 3.615.57 3.899 3.886.2 2.337 1.062 4.078 2.484 5.016 1.956 1.292 2.387 1.227 4.25-.636 1.157-1.157 2.073-3.372 2.073-5.013 0-2.659.348-2.969 3.649-3.25 7.143-.607 7.143-7.013 0-7.62-3.145-.268-3.649-.657-3.649-2.816 0-5.435-3.343-8.223-6.885-5.742M131 161.5V192l24.25-.022c21.854-.02 24.673-.214 28.534-1.966 3.27-1.484 4.744-2.958 6.228-6.228 1.752-3.861 1.946-6.68 1.966-28.534L192 131h-61v30.5m15.599-10.956c-2.2 2.199-2.003 4.06.624 5.899 1.718 1.204 5.006 1.557 14.5 1.557 11.088 0 12.478-.201 14.35-2.073 1.866-1.866 1.929-2.291.63-4.25-1.347-2.032-2.345-2.195-14.974-2.455-11.32-.232-13.792-.016-15.13 1.322m0 16c-2.2 2.199-2.003 4.06.624 5.899 1.718 1.204 5.006 1.557 14.5 1.557 11.088 0 12.478-.201 14.35-2.073 1.866-1.866 1.929-2.291.63-4.25-1.347-2.032-2.345-2.195-14.974-2.455-11.32-.232-13.792-.016-15.13 1.322" fill="#1976D2" fill-rule="evenodd"/></svg>